<svg width="180" height="18" viewBox="0 0 180 18" fill="none" xmlns="http://www.w3.org/2000/svg">
<path d="M166.33 17.5238V0.443359H179.674V4.53487H171.694V6.80389H178.449V10.7333H171.694V13.3761H180V17.5238H166.33Z" fill="#878787"/>
<path d="M150.158 17.5238V0.443359H163.502V4.53487H155.516V6.80389H162.264V10.7333H155.516V13.3761H163.825V17.5238H150.158Z" fill="#878787"/>
<path d="M135.499 17.5238V0.443359H148.122V4.74325H140.854V7.38934H146.639V11.5172H140.854V17.5272H135.499V17.5238Z" fill="#878787"/>
<path d="M120.827 17.5238V0.443359H133.454V4.74325H126.192V7.38934H131.967V11.5172H126.192V17.5272H120.827V17.5238Z" fill="#878787"/>
<path d="M101.043 8.99669C101.043 6.2183 101.812 4.01544 103.366 2.41125C104.927 0.800441 107.041 0 109.723 0C112.399 0 114.509 0.800441 116.061 2.41125C117.615 4.01544 118.381 6.2183 118.381 8.99669C118.381 11.7751 117.615 13.9713 116.061 15.5821C114.509 17.1929 112.399 17.9967 109.723 17.9967C107.041 17.9967 104.927 17.1929 103.366 15.5821C101.812 13.9746 101.043 11.7751 101.043 8.99669ZM106.453 8.99669C106.453 10.6108 106.714 11.8015 107.241 12.559C107.771 13.3164 108.598 13.6935 109.72 13.6935C110.841 13.6935 111.665 13.3164 112.186 12.5623C112.703 11.8115 112.965 10.6207 112.965 8.99669C112.965 7.36935 112.706 6.1753 112.186 5.41786C111.665 4.67365 110.841 4.29327 109.72 4.29327C108.598 4.29327 107.768 4.67365 107.241 5.43109C106.714 6.18853 106.453 7.37597 106.453 8.99669Z" fill="#878787"/>
<path d="M94.4274 10.9053H99.5012C99.3558 13.1545 98.5802 14.9075 97.1776 16.1445C95.7751 17.3816 93.891 18.0001 91.4995 18.0001C88.8236 18.0001 86.7262 17.2063 85.1912 15.6021C83.6529 13.9946 82.887 11.795 82.887 9.00011C82.887 6.22172 83.6529 4.01885 85.1686 2.41466C86.681 0.803859 88.7558 0.00341797 91.3734 0.00341797C93.7908 0.00341797 95.691 0.598787 97.0807 1.78953C98.4671 2.98688 99.2459 4.69691 99.4107 6.91963H94.2723C94.198 6.04311 93.92 5.38159 93.4385 4.93175C92.9699 4.49184 92.2913 4.27354 91.4348 4.27354C90.391 4.27354 89.5992 4.66714 89.0725 5.44774C88.5457 6.23164 88.2904 7.41907 88.2904 9.00342C88.2904 10.5613 88.5748 11.7388 89.1274 12.5326C89.6897 13.3298 90.5106 13.73 91.5867 13.73C92.4238 13.73 93.0766 13.4885 93.5678 12.9924C94.0558 12.5062 94.3466 11.8116 94.4274 10.9053Z" fill="#878787"/>
<path d="M57.2628 17.5238L63.1348 0.443359H68.5609L74.4297 17.5238H69.1135L68.493 15.2614H63.1801L62.5305 17.5238H57.2628ZM64.1528 11.676H67.5203L65.8527 5.7653L64.1528 11.676Z" fill="#878787"/>
<path d="M48.4725 17.5238V11.1997L42.3258 0.443359H48.2689L51.1451 6.26144L54.0472 0.443359H59.8255L53.8275 11.1997V17.5238H48.4725Z" fill="#878787"/>
<path d="M34.4598 17.5238V0.443359H39.9247V17.5238H34.4598Z" fill="#878787"/>
<path d="M16.1715 17.5238V0.443359H22.6543C24.296 0.443359 25.5241 0.516127 26.3256 0.664969C27.1335 0.813811 27.8348 1.0718 28.4294 1.41249C29.5864 2.11039 30.4557 3.08945 31.0342 4.34634C31.6159 5.60323 31.9067 7.1545 31.9067 8.99353C31.9067 10.9285 31.5512 12.5558 30.8241 13.8756C30.1099 15.192 29.037 16.171 27.6376 16.8127C27.0947 17.0707 26.4128 17.246 25.592 17.3552C24.7711 17.4676 23.459 17.5205 21.6557 17.5205H16.1715V17.5238ZM21.5297 13.1975H22.9807C24.3122 13.1975 25.2332 12.8932 25.76 12.278C26.2771 11.6694 26.5324 10.5746 26.5324 8.99353C26.5324 7.45218 26.2674 6.36398 25.7406 5.7223C25.2138 5.08063 24.3154 4.7664 23.0486 4.7664H21.5329V13.1975H21.5297Z" fill="#878787"/>
<path d="M0 17.5238V0.443359H13.3373V4.53487H5.36465V6.80389H12.1028V10.7333H5.36465V13.3761H13.6669V17.5238H0Z" fill="#878787"/>
</svg>
