<svg width="140" height="14" viewBox="0 0 140 14" fill="none" xmlns="http://www.w3.org/2000/svg">
<path d="M129.368 13.6295V0.344727H139.746V3.52701H133.54V5.29181H138.794V8.34803H133.54V10.4035H140V13.6295H129.368Z" fill="#24388D"/>
<path d="M116.79 13.6295V0.344727H127.168V3.52701H120.957V5.29181H126.206V8.34803H120.957V10.4035H127.42V13.6295H116.79Z" fill="#24388D"/>
<path d="M105.388 13.6295V0.344727H115.206V3.68908H109.553V5.74715H114.053V8.95774H109.553V13.6321H105.388V13.6295Z" fill="#24388D"/>
<path d="M93.9768 13.6295V0.344727H103.797V3.68908H98.1493V5.74715H102.641V8.95774H98.1493V13.6321H93.9768V13.6295Z" fill="#24388D"/>
<path d="M78.5889 6.99743C78.5889 4.83646 79.1871 3.12312 80.3961 1.87541C81.6102 0.622565 83.254 0 85.3403 0C87.4215 0 89.0628 0.622565 90.2694 1.87541C91.4784 3.12312 92.0741 4.83646 92.0741 6.99743C92.0741 9.1584 91.4784 10.8666 90.2694 12.1194C89.0628 13.3723 87.4215 13.9974 85.3403 13.9974C83.254 13.9974 81.6102 13.3723 80.3961 12.1194C79.1871 10.8692 78.5889 9.1584 78.5889 6.99743ZM82.7966 6.99743C82.7966 8.25285 83.0002 9.17898 83.4099 9.7681C83.8221 10.3572 84.4656 10.6505 85.3378 10.6505C86.21 10.6505 86.8509 10.3572 87.2556 9.77067C87.6578 9.1867 87.8614 8.26057 87.8614 6.99743C87.8614 5.73172 87.6603 4.80301 87.2556 4.21389C86.8509 3.63506 86.21 3.33921 85.3378 3.33921C84.4656 3.33921 83.8196 3.63506 83.4099 4.22418C83.0002 4.8133 82.7966 5.73686 82.7966 6.99743Z" fill="#24388D"/>
<path d="M73.4436 8.4818H77.3898C77.2767 10.2312 76.6735 11.5946 75.5826 12.5568C74.4917 13.5189 73.0263 14 71.1663 14C69.0851 14 67.4537 13.3826 66.2598 12.1349C65.0634 10.8846 64.4677 9.17382 64.4677 6.99999C64.4677 4.83902 65.0634 3.12568 66.2422 1.87798C67.4186 0.625129 69.0323 0.00256348 71.0682 0.00256348C72.9484 0.00256348 74.4264 0.465628 75.5072 1.39176C76.5855 2.32303 77.1913 3.65306 77.3195 5.38184H73.3229C73.2651 4.7001 73.0489 4.18558 72.6744 3.83571C72.3099 3.49356 71.7821 3.32377 71.116 3.32377C70.3041 3.32377 69.6883 3.62991 69.2786 4.23704C68.8689 4.84674 68.6703 5.7703 68.6703 7.00256C68.6703 8.21425 68.8915 9.13009 69.3213 9.74751C69.7587 10.3675 70.3971 10.6788 71.2341 10.6788C71.8851 10.6788 72.3929 10.491 72.7749 10.1051C73.1545 9.72693 73.3807 9.18669 73.4436 8.4818Z" fill="#24388D"/>
<path d="M44.5377 13.6295L49.1048 0.344727H53.3251L57.8897 13.6295H53.7549L53.2723 11.8699H49.14L48.6348 13.6295H44.5377ZM49.8966 9.08122H52.5157L51.2188 4.48401L49.8966 9.08122Z" fill="#24388D"/>
<path d="M37.7008 13.6295V8.71077L32.92 0.344727H37.5425L39.7795 4.8699L42.0367 0.344727H46.5309L41.8658 8.71077V13.6295H37.7008Z" fill="#24388D"/>
<path d="M26.802 13.6295V0.344727H31.0524V13.6295H26.802Z" fill="#24388D"/>
<path d="M12.5779 13.6295V0.344727H17.6201C18.897 0.344727 19.8521 0.401323 20.4755 0.51709C21.1039 0.632856 21.6493 0.833517 22.1118 1.09849C23.0117 1.64131 23.6878 2.40279 24.1377 3.38038C24.5902 4.35796 24.8164 5.5645 24.8164 6.99486C24.8164 8.49982 24.5399 9.76553 23.9743 10.792C23.4188 11.8159 22.5843 12.5774 21.496 13.0764C21.0737 13.2771 20.5433 13.4135 19.9049 13.4983C19.2665 13.5858 18.2459 13.627 16.8434 13.627H12.5779V13.6295ZM16.7454 10.2646H17.8739C18.9095 10.2646 19.6259 10.0279 20.0356 9.54943C20.4378 9.07608 20.6363 8.22455 20.6363 6.99486C20.6363 5.79603 20.4302 4.94965 20.0205 4.45057C19.6108 3.95149 18.912 3.70709 17.9267 3.70709H16.7479V10.2646H16.7454Z" fill="#24388D"/>
<path d="M0 13.6295V0.344727H10.3734V3.52701H4.1725V5.29181H9.41326V8.34803H4.1725V10.4035H10.6298V13.6295H0Z" fill="#24388D"/>
</svg>
