<svg width="20" height="20" viewBox="0 0 20 20" fill="none" xmlns="http://www.w3.org/2000/svg">
<path fill-rule="evenodd" clip-rule="evenodd" d="M3.40901 8.9875C3.35834 9.3195 3.33301 9.66016 3.33301 10.0002C3.33301 13.6762 6.32367 16.6668 9.99967 16.6668C13.6757 16.6668 16.6663 13.6762 16.6663 10.0002C16.6663 6.32416 13.6757 3.3335 9.99967 3.3335C7.91434 3.3335 5.98834 4.28216 4.71501 5.93483C4.55167 6.14683 4.59167 6.45216 4.80301 6.61483C5.01501 6.77883 5.31901 6.73816 5.48367 6.52683C6.57101 5.11283 8.21767 4.30283 9.99967 4.30283C13.141 4.30283 15.697 6.85816 15.697 10.0002C15.697 13.1415 13.141 15.6968 9.99967 15.6968C6.85834 15.6968 4.30234 13.1415 4.30234 10.0002C4.30234 9.70883 4.32434 9.4175 4.36767 9.13416C4.40767 8.87016 4.22634 8.62283 3.96167 8.58216C3.69567 8.53816 3.44967 8.72283 3.40901 8.9875ZM11.8625 9.99963C11.8625 9.86696 11.8098 9.73963 11.7151 9.64563L9.39115 7.33163C9.19515 7.1363 8.87848 7.13696 8.68381 7.33296C8.48915 7.52896 8.48915 7.84496 8.68515 8.03963L10.6538 9.99963L8.68515 11.9596C8.48915 12.1543 8.48915 12.471 8.68381 12.667C8.87848 12.8623 9.19515 12.863 9.39115 12.6683L11.7151 10.3536C11.8098 10.2603 11.8625 10.133 11.8625 9.99963Z" fill="#919BC6"/>
<rect x="1" y="-1" width="18" height="18" rx="9" transform="matrix(-1 0 0 1 20 2.00024)" stroke="#24388D" stroke-width="2"/>
</svg>
