<svg width="22" height="26" viewBox="0 0 22 26" fill="none" xmlns="http://www.w3.org/2000/svg">
<path d="M11 26C11.6072 26 12.1 25.5147 12.1 24.9167V3.30471L20.1037 11.5803C20.3198 11.804 20.6097 11.9167 20.9001 11.9167C21.1723 11.9167 21.4457 11.8175 21.6585 11.6177C22.0985 11.2049 22.1156 10.5192 21.6965 10.0858L12.556 0.634833C12.1402 0.225875 11.588 0 11 0C10.412 0 9.85984 0.225875 9.42589 0.653792L0.30352 10.0864C-0.115583 10.5197 -0.0985331 11.2055 0.34147 11.6182C0.781473 12.031 1.47833 12.0142 1.89688 11.5808L9.89999 3.27058V24.9167C9.89999 25.5147 10.3928 26 11 26Z" fill="#0F0F0F"/>
</svg>
